# xmcd CD database file generated by OrangeCD 5.2
#
# Track frame offsets:
#	150
#	22018
#	49700
#	78155
#	102044
#	131278
#	142132
#	180261
#	202621
#	221859
#	222610
#	251138
#	276621
#	290274
#	320511
#	340353
#
# Disc length: 4799 seconds
#
# Revision: 0
# Processed by: cddbd v1.5.1PL0 Copyright (c) Steve Scherf et al.
# Submitted via: OrangeCD 5.2
#
DISCID=f812bd10
DTITLE=Haynes, Warren - Atomic Studios Clifton NJ 6/26/1997
DYEAR=1997
DGENRE=Blues
TTITLE0=Old Friend
TTITLE1=I'll Be The One
TTITLE2=Before You Came
TTITLE3=I Shall Be Released
TTITLE4=How Blue Can You Get
TTITLE5=Wasted Time
TTITLE6=Love's Open Door
TTITLE7=End Of The Line
TTITLE8=Gonna Send You Back to Georgia
TTITLE9=Tuning
TTITLE10=To Lay Me Down
TTITLE11=Soulshine
TTITLE12=John the Revelator
TTITLE13=Painted Silver Light
TTITLE14=Come and Go Blues
TTITLE15=I've Been Loving You Too Long
EXTD=
EXTT0=
EXTT1=
EXTT2=
EXTT3=
EXTT4=
EXTT5=
EXTT6=
EXTT7=
EXTT8=
EXTT9=
EXTT10=
EXTT11=
EXTT12=
EXTT13=
EXTT14=
EXTT15=
PLAYORDER=
